<?xml version="1.0" encoding="UTF-8"?>
<!-- Generated by Pixelmator Pro 3.7 -->
<svg width="480" height="417" viewBox="0 0 480 417" xmlns="http://www.w3.org/2000/svg">
    <g id="surface8670">
        <g id="g4165">
            <g id="use4167">
                <g id="Group">
                    <path id="Path" fill="#1c1714" stroke="none" d="M 59.986572 290.903961 L 61.709106 299.725433 C 58.329285 301.213074 53.905502 301.96994 48.450802 301.96994 C 40.099113 301.96994 33.535206 299.712372 28.772137 295.184204 C 23.996017 290.629913 21.621004 284.588013 21.621004 277.071472 C 21.621004 269.13739 24.204809 262.795288 29.398514 258.019196 C 34.57917 253.256119 41.260521 250.868057 49.442566 250.868057 C 54.975559 250.868057 59.268848 251.624924 62.335484 253.112579 L 59.986572 262.090637 C 56.919937 260.772644 53.579262 260.107117 49.964546 260.107117 C 44.979633 260.107117 40.999527 261.555603 38.011192 264.439545 C 35.04895 267.336548 33.574356 271.329712 33.574356 276.445099 C 33.574356 281.390869 35.035904 285.318787 37.958996 288.241882 C 40.882084 291.138855 44.914383 292.57428 50.068943 292.57428 C 53.748909 292.57428 57.06348 292.026215 59.986572 290.903961 Z M 59.986572 290.903961"/>
                </g>
            </g>
        </g>
        <g id="g4169">
            <g id="use4171">
                <g id="g1">
                    <path id="path1" fill="#1c1714" stroke="none" d="M 98.558678 279.942383 L 98.558678 292.417694 C 98.558678 296.071564 98.767464 298.994659 99.185051 301.186981 L 88.954231 301.186981 L 88.275658 297.585327 L 88.014671 297.585327 C 85.535263 300.508392 82.02494 301.96994 77.470665 301.96994 C 73.947296 301.96994 71.076401 300.912933 68.857986 298.785858 C 66.665665 296.63269 65.569504 294.022797 65.569504 290.956177 C 65.569504 286.506287 67.422539 283.100342 71.154701 280.725342 C 74.912956 278.363403 80.28936 277.175873 87.283897 277.175873 L 87.283897 276.706085 C 87.283897 273.717773 85.013283 272.217041 80.498146 272.217041 C 76.805138 272.217041 73.399216 273.130524 70.267334 274.931335 L 68.179413 267.728027 C 72.146461 265.535706 76.909531 264.439545 82.481674 264.439545 C 87.766724 264.439545 91.772926 265.78363 94.487228 268.458801 C 97.201523 271.107849 98.558678 274.931335 98.558678 279.942383 Z M 87.649284 287.876465 L 87.649284 284.222595 C 80.445953 284.222595 76.844284 286.088684 76.844284 289.8078 C 76.844284 291.138855 77.235771 292.1828 78.044838 292.939697 C 78.840858 293.670471 79.950073 294.035828 81.385513 294.035828 C 82.912308 294.035828 84.334709 293.500824 85.665756 292.417694 C 86.983757 291.347656 87.649284 289.833893 87.649284 287.876465 Z M 87.649284 287.876465"/>
                </g>
            </g>
            <g id="use4173">
                <g id="g2">
                    <path id="path2" fill="#1c1714" stroke="none" d="M 107.505653 315.750244 L 107.505653 277.384644 C 107.505653 273.704712 107.414307 269.646301 107.244667 265.222534 L 117.162292 265.222534 L 117.684273 270.390137 C 120.633469 266.423096 124.848457 264.439545 130.316208 264.439545 C 134.557297 264.439545 138.172012 266.135986 141.173401 269.502747 C 144.161728 272.882568 145.66243 277.267212 145.66243 282.656677 C 145.66243 288.607239 144.005142 293.331177 140.703613 296.802338 C 137.428192 300.247406 133.44809 301.96994 128.750259 301.96994 C 126.662338 301.96994 124.744057 301.604553 123.008476 300.873779 C 121.259842 300.143005 119.941841 299.125153 119.041428 297.794098 L 118.937027 297.794098 L 118.937027 315.750244 Z M 118.937027 281.142944 L 118.937027 285.527557 C 118.937027 287.067383 119.198021 288.372375 119.720001 289.442413 C 120.241982 290.525513 121.077148 291.452026 122.225502 292.208923 C 123.373863 292.939697 124.639664 293.305054 126.035965 293.305054 C 128.502319 293.305054 130.472794 292.404663 131.934341 290.590759 C 133.395889 288.789917 134.126663 286.336609 134.126663 283.230835 C 134.126663 280.242493 133.408936 277.8414 131.986542 276.027527 C 130.59024 274.187531 128.671967 273.261017 126.244751 273.261017 C 124.26123 273.261017 122.538696 274.017883 121.077148 275.505554 C 119.641701 277.006226 118.937027 278.885376 118.937027 281.142944 Z M 118.937027 281.142944"/>
                </g>
            </g>
            <g id="use4175">
                <g id="g3">
                    <path id="path3" fill="#1c1714" stroke="none" d="M 163.991394 301.186981 L 152.612213 301.186981 L 152.612213 265.222534 L 163.991394 265.222534 Z M 164.669968 254.574112 C 164.669968 256.322754 164.069687 257.745148 162.895233 258.85437 C 161.707733 259.976624 160.154846 260.524689 158.249603 260.524689 C 156.331329 260.524689 154.778442 259.976624 153.603989 258.85437 C 152.455627 257.745148 151.881454 256.322754 151.881454 254.574112 C 151.881454 252.877686 152.468674 251.468338 153.656174 250.346069 C 154.830643 249.197723 156.370483 248.623535 158.249603 248.623535 C 160.128738 248.623535 161.655533 249.197723 162.843033 250.346069 C 164.056641 251.468338 164.669968 252.877686 164.669968 254.574112 Z M 164.669968 254.574112"/>
                </g>
            </g>
            <g id="use4177">
                <g id="g4">
                    <path id="path4" fill="#1c1714" stroke="none" d="M 174.5625 258.488953 L 185.628479 255.461487 L 185.628479 265.222534 L 193.823578 265.222534 L 193.823578 273.626404 L 185.628479 273.626404 L 185.628479 286.258331 C 185.628479 288.633362 185.967773 290.30368 186.67244 291.269348 C 187.403214 292.248047 188.551575 292.730896 190.117508 292.730896 C 191.605164 292.730896 192.779617 292.613464 193.614777 292.365509 L 193.666977 300.97818 C 191.892242 301.630676 189.412842 301.96994 186.254852 301.96994 C 182.809784 301.96994 179.991089 300.965149 177.798767 298.942444 C 175.632553 296.893677 174.5625 293.278961 174.5625 288.085266 L 174.5625 273.626404 L 169.708069 273.626404 L 169.708069 265.222534 L 174.5625 265.222534 Z M 174.5625 258.488953"/>
                </g>
            </g>
        </g>
        <g id="g4179">
            <g id="use4181">
                <g id="g5">
                    <path id="path5" fill="#1c1714" stroke="none" d="M 236.518738 282.813263 C 236.518738 288.698608 234.66571 293.357269 230.985748 296.802338 C 227.29274 300.247406 222.64711 301.96994 217.048874 301.96994 C 211.411484 301.96994 206.7789 300.28656 203.164185 296.906738 C 199.575562 293.500824 197.787781 289.024841 197.787781 283.491821 C 197.787781 277.789185 199.588623 273.19577 203.216385 269.711548 C 206.870255 266.201233 211.685516 264.439545 217.675247 264.439545 C 223.234344 264.439545 227.762512 266.162079 231.246735 269.607178 C 234.75705 273.026123 236.518738 277.423828 236.518738 282.813263 Z M 209.480148 283.230835 C 209.480148 286.44104 210.171768 289.024841 211.568069 291.008362 C 212.951324 292.96579 214.817398 293.931458 217.153259 293.931458 C 219.410828 293.931458 221.237762 292.96579 222.634064 291.008362 C 224.017303 289.063965 224.721985 286.454102 224.721985 283.17865 C 224.721985 280.046753 224.056458 277.489075 222.738449 275.505554 C 221.40741 273.522003 219.567429 272.530243 217.20546 272.530243 C 214.765198 272.530243 212.873016 273.548096 211.515869 275.557739 C 210.158722 277.54126 209.480148 280.098969 209.480148 283.230835 Z M 209.480148 283.230835"/>
                </g>
            </g>
            <g id="use4183">
                <g id="g6">
                    <path id="path6" fill="#1c1714" stroke="none" d="M 243.424561 301.186981 L 243.424561 248.884537 L 254.803741 248.884537 L 254.803741 301.186981 Z M 243.424561 301.186981"/>
                </g>
            </g>
            <g id="use4187">
                <g id="g7">
                    <path id="path7" fill="#1c1714" stroke="none" d="M 279.32135 251.651031 L 290.752716 251.651031 L 290.752716 270.703308 L 310.222595 270.703308 L 310.222595 251.651031 L 321.601776 251.651031 L 321.601776 301.186981 L 310.222595 301.186981 L 310.222595 280.516541 L 290.752716 280.516541 L 290.752716 301.186981 L 279.32135 301.186981 Z M 279.32135 251.651031"/>
                </g>
            </g>
            <g id="use4189">
                <g id="g8">
                    <path id="path8" fill="#1c1714" stroke="none" d="M 342.320099 301.186981 L 330.940948 301.186981 L 330.940948 265.222534 L 342.320099 265.222534 Z M 342.998688 254.574112 C 342.998688 256.322754 342.398407 257.745148 341.223938 258.85437 C 340.036438 259.976624 338.483551 260.524689 336.578339 260.524689 C 334.660034 260.524689 333.107147 259.976624 331.932709 258.85437 C 330.784332 257.745148 330.210175 256.322754 330.210175 254.574112 C 330.210175 252.877686 330.797394 251.468338 331.984894 250.346069 C 333.159363 249.197723 334.699188 248.623535 336.578339 248.623535 C 338.457458 248.623535 339.984253 249.197723 341.171753 250.346069 C 342.385345 251.468338 342.998688 252.877686 342.998688 254.574112 Z M 342.998688 254.574112"/>
                </g>
            </g>
            <g id="use4191">
                <g id="g9">
                    <path id="path9" fill="#1c1714" stroke="none" d="M 351.429688 301.186981 L 351.429688 248.884537 L 362.808868 248.884537 L 362.808868 301.186981 Z M 351.429688 301.186981"/>
                </g>
            </g>
            <g id="use4193">
                <g id="g10">
                    <path id="path10" fill="#1c1714" stroke="none" d="M 371.918427 301.186981 L 371.918427 248.884537 L 383.297607 248.884537 L 383.297607 301.186981 Z M 371.918427 301.186981"/>
                </g>
            </g>
        </g>
        <g id="g4195">
            <g id="use4197">
                <g id="g11">
                    <path id="path11" fill="#1c1714" stroke="none" d="M 35.976471 371.470428 L 35.976471 325.953735 L 20.21266 325.953735 L 20.21266 315.200928 L 64.998589 315.200928 L 64.998589 325.953735 L 48.921585 325.953735 L 48.921585 371.470428 Z M 35.976471 371.470428"/>
                </g>
            </g>
        </g>
        <g id="g4199">
            <g id="use4201">
                <g id="g12">
                    <path id="path12" fill="#1c1714" stroke="none" d="M 105.408966 350.591217 C 105.408966 357.272583 103.294945 362.58371 99.093002 366.511627 C 94.878006 370.452576 89.606003 372.410004 83.276993 372.410004 C 76.869675 372.410004 71.610725 370.478668 67.513176 366.616028 C 63.44173 362.753357 61.406006 357.664063 61.406006 351.321991 C 61.406006 344.849426 63.454781 339.629639 67.565376 335.662567 C 71.702072 331.695526 77.169815 329.712006 83.955566 329.712006 C 90.284576 329.712006 95.439133 331.669434 99.406189 335.558167 C 103.399345 339.459991 105.408966 344.471008 105.408966 350.591217 Z M 74.664314 351.11319 C 74.664314 354.740967 75.447281 357.664063 77.013222 359.882477 C 78.605263 362.113953 80.73233 363.223145 83.381386 363.223145 C 85.952141 363.223145 88.027016 362.126984 89.592957 359.934662 C 91.158897 357.716248 91.941864 354.740967 91.941864 351.008789 C 91.941864 347.459351 91.184998 344.562347 89.69735 342.291748 C 88.196655 340.03418 86.108734 338.898865 83.433586 338.898865 C 80.680138 338.898865 78.52697 340.03418 76.961029 342.291748 C 75.421188 344.562347 74.664314 347.498474 74.664314 351.11319 Z M 74.664314 351.11319"/>
                </g>
            </g>
            <g id="use4203">
                <g id="g13">
                    <path id="path13" fill="#1c1714" stroke="none" d="M 154.025101 350.591217 C 154.025101 357.272583 151.911087 362.58371 147.709137 366.511627 C 143.494156 370.452576 138.222153 372.410004 131.893127 372.410004 C 125.485825 372.410004 120.226875 370.478668 116.129326 366.616028 C 112.057877 362.753357 110.022156 357.664063 110.022156 351.321991 C 110.022156 344.849426 112.070923 339.629639 116.181519 335.662567 C 120.318214 331.695526 125.785965 329.712006 132.571716 329.712006 C 138.900726 329.712006 144.055283 331.669434 148.022339 335.558167 C 152.015488 339.459991 154.025101 344.471008 154.025101 350.591217 Z M 123.280457 351.11319 C 123.280457 354.740967 124.063431 357.664063 125.629372 359.882477 C 127.221413 362.113953 129.34848 363.223145 131.997528 363.223145 C 134.568283 363.223145 136.643158 362.126984 138.209106 359.934662 C 139.77504 357.716248 140.558014 354.740967 140.558014 351.008789 C 140.558014 347.459351 139.801147 344.562347 138.313492 342.291748 C 136.812805 340.03418 134.724884 338.898865 132.049728 338.898865 C 129.29628 338.898865 127.143112 340.03418 125.577171 342.291748 C 124.037331 344.562347 123.280457 347.498474 123.280457 351.11319 Z M 123.280457 351.11319"/>
                </g>
            </g>
            <g id="use4205">
                <g id="g14">
                    <path id="path14" fill="#1c1714" stroke="none" d="M 161.143936 371.470428 L 161.143936 312.016846 L 174.08905 312.016846 L 174.08905 371.470428 Z M 161.143936 371.470428"/>
                </g>
            </g>
            <g id="use4209">
                <g id="g15">
                    <path id="path15" fill="#1c1714" stroke="none" d="M 201.383133 371.470428 L 201.383133 315.200928 L 214.328247 315.200928 L 214.328247 360.613251 L 237.660782 360.613251 L 237.660782 371.470428 Z M 201.383133 371.470428"/>
                </g>
            </g>
            <g id="use4211">
                <g id="g16">
                    <path id="path16" fill="#1c1714" stroke="none" d="M 257.138397 371.470428 L 244.193283 371.470428 L 244.193283 330.65155 L 257.138397 330.65155 Z M 257.869171 318.541626 C 257.869171 320.499023 257.190613 322.117188 255.83345 323.396027 C 254.502411 324.648804 252.766815 325.275177 250.613647 325.275177 C 248.447433 325.275177 246.698792 324.648804 245.341644 323.396027 C 244.010605 322.117188 243.358124 320.499023 243.358124 318.541626 C 243.358124 316.597229 244.010605 314.979095 245.341644 313.687195 C 246.698792 312.408356 248.447433 311.755859 250.613647 311.755859 C 252.766815 311.755859 254.502411 312.408356 255.83345 313.687195 C 257.190613 314.979095 257.869171 316.597229 257.869171 318.541626 Z M 257.869171 318.541626"/>
                </g>
            </g>
            <g id="use4213">
                <g id="g17">
                    <path id="path17" fill="#1c1714" stroke="none" d="M 267.04422 359.203888 L 267.04422 312.016846 L 279.989319 312.016846 L 279.989319 335.662567 L 280.145905 335.662567 C 282.990723 331.695526 287.297058 329.712006 293.038849 329.712006 C 298.115112 329.712006 302.290955 331.617218 305.566376 335.401581 C 308.828766 339.199005 310.472992 344.170868 310.472992 350.330231 C 310.472992 354.545227 309.650879 358.342621 308.019684 361.709412 C 306.375458 365.089233 304.052612 367.712189 301.025146 369.591309 C 297.99765 371.470428 294.722229 372.410004 291.211914 372.410004 C 285.391815 372.410004 281.137695 370.191589 278.42337 365.728638 L 278.266785 365.728638 L 277.640411 371.470428 L 266.731018 371.470428 C 266.939819 367.790466 267.04422 363.692932 267.04422 359.203888 Z M 279.989319 348.398895 L 279.989319 353.775299 C 279.989319 356.528748 280.837555 358.62973 282.547028 360.091278 C 284.243469 361.552795 286.122589 362.283569 288.184418 362.283569 C 291.029205 362.283569 293.273743 361.278778 294.917969 359.256104 C 296.549164 357.207336 297.371277 354.401672 297.371277 350.852203 C 297.371277 347.446289 296.549164 344.718933 294.917969 342.657104 C 293.273743 340.608337 291.029205 339.577423 288.184418 339.577423 C 285.952942 339.577423 284.021637 340.399536 282.390442 342.030731 C 280.785339 343.674988 279.989319 345.789001 279.989319 348.398895 Z M 279.989319 348.398895"/>
                </g>
            </g>
            <g id="use4215">
                <g id="g18">
                    <path id="path18" fill="#1c1714" stroke="none" d="M 317.568451 371.470428 L 317.568451 344.223053 C 317.568451 338.102844 317.437958 333.574646 317.203064 330.65155 L 328.321259 330.65155 L 328.738831 338.376892 L 329.104218 338.376892 C 330.069885 335.597321 331.609711 333.457214 333.697632 331.956512 C 335.811676 330.468872 338.056183 329.712006 340.431183 329.712006 C 341.749207 329.712006 342.67572 329.803345 343.197693 329.973022 L 343.197693 342.082947 C 342.114594 341.808899 340.953186 341.665375 339.700409 341.665375 C 337.299316 341.665375 335.15918 342.343933 333.28006 343.701111 C 331.427032 345.032135 330.51355 347.407166 330.51355 350.852234 L 330.51355 371.470459 Z M 317.568451 371.470428"/>
                </g>
            </g>
        </g>
        <g id="g4217">
            <g id="use4219">
                <g id="g19">
                    <path id="path19" fill="#1c1714" stroke="none" d="M 383.264984 347.35495 L 383.264984 361.552795 C 383.264984 365.663391 383.486847 368.964935 383.943542 371.470428 L 372.355591 371.470428 L 371.572601 367.398987 L 371.25943 367.398987 C 368.440735 370.739655 364.447571 372.410004 359.306061 372.410004 C 355.299866 372.410004 352.050537 371.196411 349.545044 368.756134 C 347.03952 366.328918 345.786774 363.366699 345.786774 359.882477 C 345.786774 354.806213 347.900787 350.930511 352.154938 348.24231 C 356.396027 345.528015 362.490143 344.170868 370.424255 344.170868 L 370.424255 343.648865 C 370.424255 340.282104 367.866547 338.585663 362.75116 338.585663 C 358.575287 338.585663 354.686554 339.616577 351.110992 341.665344 L 348.709869 333.470276 C 353.225006 330.964752 358.653595 329.712006 364.995667 329.712006 C 371.011475 329.712006 375.552704 331.225739 378.619354 334.253235 C 381.712097 337.280701 383.264984 341.652313 383.264984 347.35495 Z M 370.841858 356.333008 L 370.841858 352.157166 C 362.65979 352.157166 358.575287 354.284241 358.575287 358.52533 C 358.575287 360.065155 359.018982 361.265717 359.932465 362.126984 C 360.872009 362.962158 362.137817 363.37973 363.74292 363.37973 C 365.478485 363.37973 367.096619 362.77948 368.597321 361.552795 C 370.084961 360.300049 370.841858 358.564484 370.841858 356.333008 Z M 370.841858 356.333008"/>
                </g>
            </g>
        </g>
        <path id="path4269" fill="#1c1714" stroke="none" d="M 165.141373 8.232361 C 166.315811 10.281158 167.268448 12.408234 168.090546 14.835388 C 169.747818 19.728973 170.830948 25.692596 172.462128 35.153503 C 173.493057 41.117126 174.432632 47.067719 175.333054 53.005219 C 186.516495 53.461975 222.232956 56.267639 243.595016 73.453827 C 265.492126 91.070648 273.086914 136.600403 274.861664 149.767395 C 278.567719 149.937073 282.117188 150.080414 285.405701 150.171906 C 291.447601 150.315582 296.980591 151.424652 302.591888 152.533875 C 303.688049 152.755676 304.771118 152.964508 305.86731 153.173309 L 294.279358 72.984039 L 294.265991 72.918976 L 294.265991 72.905609 C 293.56134 68.012115 292.439087 63.353424 290.964478 58.955719 C 289.489868 54.544983 287.649902 50.382233 285.483704 46.5065 C 274.404663 26.645111 254.791275 13.987122 232.137299 12.538605 Z M 292.543762 190.429657 L 284.244263 182.117126 L 284.230927 190.351334 L 276.388153 190.351334 L 276.388153 182.130188 L 268.088623 190.429657 L 256.918274 190.429657 L 276.401215 170.998917 L 276.401215 157.701477 C 272.381958 157.518738 268.258301 157.309998 264.082489 157.075134 C 256.057007 156.657532 247.835785 156.213806 240.12355 156.031158 L 240.12355 164.356705 L 259.580383 183.787445 L 248.410004 183.787445 L 240.12355 175.487976 L 240.12355 183.787445 L 232.267746 183.787445 L 232.267746 175.474915 L 223.968277 183.787445 L 212.797867 183.787445 L 232.267746 164.356705 L 232.267746 155.95285 C 231.1194 155.966156 229.997116 155.979523 228.887909 156.004974 L 228.731247 156.004974 C 208.752487 156.461731 191.77504 144.234344 182.027069 125.155945 C 180.134903 121.462921 178.5298 117.561096 177.237885 113.502747 C 175.945969 109.418243 174.954239 105.111877 174.27565 100.648956 L 174.27565 100.635651 L 174.248825 100.465912 C 173.270157 93.902039 172.226166 86.529022 171.18222 79.143005 C 169.185638 65.03653 167.189056 50.929993 164.696625 36.484161 C 163.130661 27.388641 162.099747 21.686005 160.638199 17.366608 C 159.254974 13.282135 157.388885 10.254639 154.100388 6.274536 L 148.280319 -0.746094 L 157.375824 -0.158875 L 232.63237 4.682495 C 258.00061 6.31369 279.949921 20.472382 292.346924 42.682678 C 294.748047 46.975983 296.783783 51.582458 298.414978 56.44989 C 300.059204 61.317352 301.285858 66.445862 302.055756 71.783112 L 302.069092 71.835236 L 302.069092 71.861908 L 314.440033 157.427582 L 315.196899 162.673477 L 309.96405 161.890472 C 306.949646 161.433731 304.000427 160.846527 301.077332 160.272369 C 295.72702 159.202332 290.455048 158.158356 285.209106 158.014801 L 284.256531 157.988129 L 284.243164 170.998505 L 303.713074 190.429214 Z M 176.220383 58.929718 C 177.173019 65.323944 178.07341 71.692108 178.973846 78.073334 C 179.939499 84.8591 180.892136 91.657898 182.040497 99.317932 L 182.067154 99.47464 C 182.680511 103.53302 183.580902 107.421814 184.755386 111.1409 C 185.942886 114.873016 187.378311 118.3703 189.009491 121.593536 C 197.40036 137.996765 211.807022 148.540802 228.588715 148.149323 L 228.732346 148.149323 C 239.667862 147.901428 252.312836 148.579926 264.488007 149.232391 L 268.87265 149.454254 C 266.941284 135.608704 259.607513 93.902435 239.902725 78.047302 C 220.511154 62.453156 187.952606 59.503937 176.221085 58.929749"/>
        <path id="path4271" fill="#1c1714" fill-rule="evenodd" stroke="none" d="M 229.057877 26.91925 C 233.259811 26.91925 236.678802 30.325165 236.678802 34.52713 C 236.678802 38.729095 233.259811 42.134979 229.057877 42.134979 C 224.855927 42.134979 221.450043 38.729095 221.450043 34.52713 C 221.450043 30.325165 224.855927 26.91925 229.057877 26.91925"/>
        <g id="g4273">
            <g id="use4275">
                <g id="g20">
                    <path id="path20" fill="#1c1714" stroke="none" d="M 394.301208 391.472412 L 394.301208 364.225006 C 394.301208 358.104797 394.170715 353.576599 393.935822 350.653534 L 405.054016 350.653534 L 405.471588 358.378845 L 405.836975 358.378845 C 406.802643 355.599304 408.342499 353.459167 410.43042 351.958466 C 412.544434 350.470825 414.78894 349.713959 417.163971 349.713959 C 418.481964 349.713959 419.408478 349.805298 419.93045 349.974976 L 419.93045 362.0849 C 418.847351 361.810883 417.685944 361.667328 416.433197 361.667328 C 414.032074 361.667328 411.891968 362.345886 410.012817 363.703064 C 408.15979 365.034088 407.246338 367.409119 407.246338 370.854187 L 407.246338 391.472412 Z M 394.301208 391.472412"/>
                </g>
            </g>
        </g>
        <g id="g4277">
            <g id="use4279">
                <g id="g21">
                    <path id="path21" fill="#1c1714" stroke="none" d="M 422.888214 350.653534 L 437.242676 350.653534 C 442.52771 367.356903 445.346405 376.569855 445.698761 378.266296 L 445.959747 378.266296 L 453.11087 350.653534 L 466.995575 350.653534 L 457.547729 376.491547 C 455.003052 383.459991 452.70636 388.966888 450.657562 393.03833 C 448.595764 397.109802 446.546967 400.241669 444.498199 402.43399 C 442.436371 404.626312 440.139679 406.348846 437.608063 407.601593 C 435.102539 408.880463 432.505707 409.663422 429.830536 409.9505 L 427.168457 399.093323 C 430.822327 398.362549 433.693207 396.927094 435.781128 394.81308 C 437.869049 392.686005 438.913025 391.133118 438.913025 390.115234 C 438.913025 389.77597 438.704224 389.058228 438.286621 387.975128 Z M 422.888214 350.653534"/>
                </g>
            </g>
        </g>
        <path id="path4281" fill="#1c1714" stroke="none" d="M 65.377853 175.487976 C 64.647079 175.487976 63.916309 175.487976 63.172474 175.501312 C 58.605129 175.579437 54.14222 175.958023 49.822823 176.57135 C 45.55563 177.197723 41.471138 178.072037 37.621529 179.155167 C 18.751942 184.518524 5.845955 195.179993 5.806832 207.381287 C 5.806832 207.720551 5.820158 208.098969 5.845894 208.516571 C 6.002572 210.865494 6.628873 213.162201 7.672839 215.354553 C 8.742887 217.572937 10.243579 219.713074 12.148811 221.748795 C 21.988167 232.240616 42.006092 239.443939 65.195099 239.483093 C 65.651825 239.483093 66.173813 239.483093 66.747971 239.469788 C 75.960945 239.234924 94.360764 237.081726 112.421272 234.954651 C 130.090302 232.892792 147.459198 230.844055 156.097992 230.648285 C 228.614151 229.030167 284.348602 229.278091 349.178558 229.565201 C 368.635376 229.656387 388.914307 229.74794 410.69397 229.787003 L 410.811584 186.423477 C 383.629395 186.384415 359.879333 186.410126 337.721252 186.436829 C 277.850067 186.514954 229.592987 186.567474 156.502655 185.144913 C 155.850189 185.131561 155.197723 185.10585 154.558273 185.066788 C 147.067841 184.636169 129.999115 182.57431 112.591072 180.473358 C 92.259895 178.020081 71.432907 175.50148 65.377914 175.488464 Z M 63.055019 170.698792 C 63.811897 170.68544 64.581833 170.68544 65.377853 170.68544 C 71.941742 170.68544 92.925339 173.230072 113.413094 175.696472 C 130.716766 177.784363 147.681122 179.833145 154.936661 180.263763 C 155.680466 180.302826 156.254654 180.328949 156.633072 180.341888 L 156.646408 180.341888 C 229.723679 181.764297 277.928558 181.699036 337.721405 181.633804 C 360.662476 181.606995 385.312988 181.568619 413.721802 181.620453 L 416.631805 181.633804 L 416.631805 184.034927 L 416.50119 232.187592 L 416.50119 234.601776 L 413.604126 234.601776 C 390.676208 234.562714 369.470703 234.458099 349.152649 234.366913 C 284.40097 234.092987 228.718674 233.84494 156.228653 235.463074 C 148.007462 235.645813 130.769058 237.668472 113.217453 239.73024 C 95.026413 241.857315 76.522186 244.036636 66.904709 244.2715 C 66.317513 244.284851 65.756378 244.298157 65.195236 244.298157 C 40.192348 244.246033 18.425789 236.298798 7.542489 224.684753 C 5.324044 222.322815 3.549325 219.791199 2.270475 217.129089 C 0.978564 214.440887 0.221708 211.635269 0.039009 208.764343 C 0.012337 208.33371 -5.3e-05 207.877014 -5.3e-05 207.381073 C 0.039009 192.987488 14.537138 180.616547 35.729542 174.600723 C 39.853176 173.426285 44.237801 172.48671 48.818203 171.834244 C 53.346363 171.168716 58.109444 170.790298 63.055183 170.698914"/>
        <path id="path4283" fill="#1c1714" stroke="none" d="M 457.05896 251.853699 L 457.202606 184.126724 C 457.202606 183.722183 457.202606 183.304626 457.202606 182.860931 C 457.150452 179.220108 456.863342 174.561462 456.276093 169.185074 C 455.688843 163.847794 454.801483 157.792816 453.561829 151.346375 C 447.976624 122.245941 435.214172 85.185364 410.276581 67.764221 L 410.433228 68.051208 C 412.103577 71.026459 413.682587 74.314972 415.157104 77.825256 C 422.490936 95.246368 426.940887 117.691498 426.901733 134.460175 C 426.875061 146.361298 425.922974 155.404633 424.187378 163.286514 C 422.438782 171.207611 419.933228 177.87587 416.762268 185.000916 L 416.631561 185.313934 L 416.487915 251.748993 L 416.474579 254.163177 L 416.343872 254.163177 C 416.291809 255.507263 416.200256 256.799164 416.056946 258.065002 C 415.887268 259.72226 415.639374 261.314301 415.339233 262.828064 C 414.334442 268.008728 412.624969 272.615173 410.419556 276.308167 C 411.280884 276.21698 412.102997 276.138489 412.898987 276.060303 C 419.449829 275.486145 427.292603 275.159882 435.787811 275.172943 L 435.801147 275.172943 L 437.053925 275.186279 C 438.919983 275.199585 440.733856 275.225342 442.469452 275.264404 C 444.296356 275.316528 446.031952 275.368652 447.676239 275.447144 C 453.365784 275.682007 458.546448 276.086609 462.970276 276.621582 C 462.591766 275.969116 462.213348 275.290588 461.847961 274.559784 C 459.120667 269.131195 457.371948 262.05835 457.097961 254.25473 L 457.058899 254.25473 Z M 462.017792 184.126724 L 461.874146 249.439545 L 461.887512 249.439545 L 461.874146 251.853699 L 461.860809 251.971329 C 461.847473 259.905396 463.478973 267.095673 466.154114 272.419891 C 466.649963 273.424683 467.224182 274.39035 467.837463 275.303802 C 468.424683 276.178162 469.051086 276.961151 469.67746 277.652771 C 469.847137 277.835449 470.016724 277.992035 470.160278 278.13559 L 468.059296 282.233124 C 462.839478 281.30661 455.675354 280.601929 447.467163 280.249603 C 445.74469 280.171448 444.048218 280.118896 442.364807 280.079895 C 440.590057 280.027771 438.815399 280.00177 437.040649 279.988647 L 435.774872 279.988647 C 427.566711 279.975342 419.84137 280.301697 413.31662 280.876038 C 411.920288 280.993622 410.667542 281.123901 409.584442 281.241425 C 408.37085 281.372131 407.248596 281.515381 406.20459 281.659027 L 405.40863 281.776215 L 403.359833 277.704773 C 406.674408 274.364105 409.27124 268.752777 410.615356 261.901794 C 410.889282 260.47937 411.111206 259.017883 411.267883 257.556335 C 411.437561 256.02951 411.541809 254.489685 411.567841 252.949844 C 411.581177 252.532288 411.594543 252.127747 411.594543 251.749283 L 411.594543 249.335144 L 411.685669 249.335144 L 411.829407 184.03537 L 411.829407 181.621185 L 412.990784 181.621185 C 415.757294 175.253021 417.962616 169.224182 419.502502 162.242691 C 421.15979 154.700104 422.073212 145.982971 422.099335 134.460297 C 422.126038 118.265839 417.832092 96.551453 410.733215 79.691467 C 409.349945 76.402985 407.849243 73.297211 406.23114 70.413269 C 404.6521 67.594574 402.994843 65.049896 401.246185 62.857605 C 401.037415 62.59671 400.815552 62.322571 400.580658 62.048523 L 403.425476 58.316376 C 436.08844 73.231964 451.865295 116.973938 458.298645 150.445953 C 459.551392 157.009857 460.464905 163.195328 461.065155 168.676086 C 461.652405 174.156921 461.952515 178.959122 462.004761 182.79567 C 462.018036 183.25238 462.018036 183.696106 462.018036 184.126724"/>
        <path id="path4285" fill="#1c1714" stroke="none" d="M 475.106415 325.922729 L 475.197632 284.20343 C 473.696899 283.316101 470.095276 282.467865 465.019012 281.750122 C 459.407684 280.954102 452.191284 280.366882 444.152802 280.118958 C 441.425507 280.040833 438.632874 279.988281 435.788055 279.988281 C 432.943329 279.974945 430.137665 280.014954 427.423401 280.092529 C 424.591614 280.157776 421.799042 280.28833 419.084686 280.444885 C 416.396545 280.601532 413.904022 280.797211 411.633423 281.019043 C 402.381317 281.932556 396.365479 282.806854 396.365479 283.341858 L 396.274292 325.452637 C 398.597107 324.669678 401.846436 323.991089 405.800415 323.456055 C 411.411743 322.673096 418.615051 322.125061 426.653625 321.903168 C 429.550598 321.811981 432.565002 321.772522 435.683807 321.785583 C 438.828735 321.785583 441.84314 321.837738 444.727112 321.942261 C 447.741577 322.033447 450.560272 322.177124 453.157104 322.346771 C 455.819214 322.516479 458.3508 322.738281 460.725891 322.986206 C 466.793823 323.625671 471.752655 324.630463 475.106415 325.922363 Z M 480.000061 283.524872 L 479.895721 330.124695 L 475.093567 330.124695 C 475.093567 329.615723 469.247375 328.715302 460.230103 327.775757 C 457.972534 327.540894 455.506226 327.332092 452.857147 327.149384 C 450.169006 326.979675 447.389465 326.836365 444.583801 326.744843 C 441.686737 326.653656 438.711487 326.601196 435.68396 326.588196 C 432.656464 326.588196 429.668182 326.627258 426.784241 326.70578 C 418.941467 326.927612 411.920868 327.462646 406.440063 328.219543 C 401.376831 328.911133 397.788208 329.746338 396.261414 330.633667 L 396.248108 332.356262 L 391.445862 332.356262 L 391.445862 329.942078 L 391.55014 283.342255 C 391.563446 279.962402 399.288452 277.404724 411.150452 276.230286 C 413.564667 275.995453 416.122375 275.799652 418.797485 275.643036 C 421.420471 275.486328 424.27829 275.356049 427.305786 275.277679 C 430.033173 275.212463 432.864868 275.173401 435.787964 275.173401 C 438.724091 275.186737 441.568909 275.238617 444.283173 275.317078 C 452.569641 275.577972 459.955688 276.165253 465.697479 276.974335 C 471.726379 277.835571 476.123993 278.997009 478.107544 280.354187 C 479.347229 281.202393 479.999725 282.259369 479.999725 283.525208"/>
        <path id="path4287" fill="#1c1714" stroke="none" d="M 477.833801 326.849243 C 479.190979 327.71051 479.908661 328.806702 479.89563 330.124695 C 479.89563 331.520966 479.11261 332.65625 477.611938 333.543671 C 475.537079 334.770264 471.282928 335.840393 465.554169 336.623352 C 459.942932 337.39328 452.739563 337.941345 444.70105 338.176208 C 441.804077 338.254364 438.789612 338.293793 435.657776 338.293793 C 432.73468 338.280487 429.889862 338.241669 427.175598 338.150146 C 418.88913 337.902283 411.490112 337.301971 405.761322 336.492889 C 399.732422 335.631653 395.321716 334.470184 393.351257 333.113037 C 392.09848 332.264832 391.446014 331.207855 391.446014 329.942017 C 391.459351 328.624023 392.176819 327.527832 393.533936 326.666595 C 395.569672 325.374695 399.915131 324.265472 405.800476 323.45639 C 411.411743 322.673431 418.615112 322.125366 426.653625 321.903534 C 429.550598 321.812317 432.565002 321.772827 435.683807 321.785889 C 449.672913 321.812592 462.083069 322.790741 469.82135 324.278381 C 471.596069 324.617645 473.162079 324.996094 474.46701 325.400635 C 475.876343 325.831268 477.024719 326.327148 477.833801 326.849121 Z M 473.449188 330.124695 C 473.318481 330.072571 473.188202 330.033203 473.044647 329.994019 C 471.935425 329.654724 470.552124 329.328461 468.907928 329.002197 C 461.417542 327.566772 449.333618 326.614197 435.683807 326.588074 C 432.656372 326.588074 429.66803 326.627136 426.784058 326.705658 C 418.941284 326.92749 411.920715 327.462524 406.439911 328.219421 C 402.694672 328.741425 399.758545 329.328613 397.866394 329.955017 C 399.745483 330.594421 402.694672 331.194672 406.439911 331.716675 C 412.051147 332.525757 419.254517 333.099915 427.30603 333.34787 C 430.033417 333.425995 432.825989 333.478516 435.657776 333.478516 C 438.698303 333.491882 441.686646 333.451874 444.570618 333.361328 C 452.413391 333.139496 459.43396 332.604462 464.914764 331.847595 C 468.607788 331.338623 471.530884 330.751434 473.449188 330.125061"/>
    </g>
</svg>
